<svg width="87" height="86" viewBox="0 0 87 86" fill="none" xmlns="http://www.w3.org/2000/svg">
<path d="M19.95 66.1207C26.1524 72.3 34.7209 76.122 44.1855 76.122C63.1146 76.122 78.4597 60.8341 78.4597 41.9756C78.4597 38.4066 77.9101 34.9655 76.8906 31.7317M19.95 66.1207C13.7476 59.9414 9.91129 51.4049 9.91129 41.9756C9.91129 23.1171 25.2564 7.82927 44.1855 7.82927C47.7678 7.82927 51.2218 8.37682 54.4677 9.3925M19.95 66.1207L1 85M20.879 39.9268L37.3306 23.5366L51.0403 35.8293L86 1M86 1V16.7073M86 1H70.2339" stroke="#DBFF00" stroke-width="2"/>
</svg>
