<svg width="389" height="80" viewBox="0 0 389 80" fill="none" xmlns="http://www.w3.org/2000/svg">
<g style="mix-blend-mode:screen" clip-path="url(#clip0_2_839)">
<rect width="389" height="80" fill="#DBFF00"/>
<path d="M0 0H16L0 16V0Z" fill="black"/>
<path d="M389 80H373L389 64V80Z" fill="black"/>
<path d="M38.552 32.96L42.776 39.248L46.976 32.96H50.576L44.672 41.6L50.384 50H46.784L42.776 43.952L38.744 50H35.12L40.832 41.6L34.928 32.96H38.552ZM59.0836 50.12C57.8356 50.12 56.6996 49.88 55.6756 49.4C54.6676 48.92 53.7956 48.272 53.0596 47.456C52.3396 46.624 51.7796 45.696 51.3796 44.672C50.9796 43.632 50.7796 42.568 50.7796 41.48C50.7796 40.344 50.9876 39.264 51.4036 38.24C51.8356 37.2 52.4196 36.28 53.1556 35.48C53.9076 34.664 54.7876 34.024 55.7956 33.56C56.8196 33.08 57.9396 32.84 59.1556 32.84C60.3876 32.84 61.5076 33.088 62.5156 33.584C63.5396 34.08 64.4116 34.744 65.1316 35.576C65.8516 36.408 66.4116 37.336 66.8116 38.36C67.2116 39.384 67.4116 40.44 67.4116 41.528C67.4116 42.648 67.2036 43.728 66.7876 44.768C66.3716 45.792 65.7876 46.712 65.0356 47.528C64.2996 48.328 63.4196 48.96 62.3956 49.424C61.3876 49.888 60.2836 50.12 59.0836 50.12ZM54.1396 41.48C54.1396 42.216 54.2516 42.928 54.4756 43.616C54.6996 44.304 55.0196 44.92 55.4356 45.464C55.8676 45.992 56.3876 46.416 56.9956 46.736C57.6196 47.04 58.3236 47.192 59.1076 47.192C59.9076 47.192 60.6196 47.032 61.2436 46.712C61.8676 46.376 62.3876 45.936 62.8036 45.392C63.2196 44.832 63.5316 44.216 63.7396 43.544C63.9636 42.856 64.0756 42.168 64.0756 41.48C64.0756 40.744 63.9556 40.04 63.7156 39.368C63.4916 38.68 63.1636 38.072 62.7316 37.544C62.3156 37 61.7956 36.576 61.1716 36.272C60.5636 35.952 59.8756 35.792 59.1076 35.792C58.2916 35.792 57.5716 35.96 56.9476 36.296C56.3396 36.616 55.8276 37.048 55.4116 37.592C54.9956 38.136 54.6756 38.744 54.4516 39.416C54.2436 40.088 54.1396 40.776 54.1396 41.48ZM78.9283 50V43.352C78.7523 43.432 78.4963 43.536 78.1603 43.664C77.8243 43.792 77.4003 43.904 76.8883 44C76.3763 44.096 75.7763 44.144 75.0883 44.144C73.1043 44.144 71.6163 43.704 70.6243 42.824C69.6323 41.944 69.1363 40.536 69.1363 38.6V32.96H72.3523V38.24C72.3523 39.248 72.6083 39.992 73.1203 40.472C73.6483 40.936 74.5443 41.168 75.8083 41.168C76.3683 41.168 76.9283 41.112 77.4883 41C78.0483 40.872 78.5283 40.712 78.9283 40.52V32.96H82.1443V50H78.9283ZM86.867 50.12V47.384H88.211C88.627 47.384 88.939 47.296 89.147 47.12C89.355 46.944 89.539 46.664 89.699 46.28L90.083 45.44L83.315 32.96H86.963L91.547 42.08L95.531 32.96H99.011L92.219 47.84C91.803 48.688 91.331 49.28 90.803 49.616C90.275 49.952 89.571 50.12 88.691 50.12H86.867ZM119.673 32.96V50H116.385V42.728H108.657V50H105.345V32.96H108.657V39.848H116.385V32.96H119.673ZM127.38 32.96H130.74L137.004 50H133.596L132.012 45.752H126.06L124.5 50H121.092L127.38 32.96ZM131.412 43.424L129.06 36.392L126.612 43.424H131.412ZM142.976 50V32.96H146.264V39.824H147.944L153.008 32.96H156.704L150.512 41.216L157.184 50H153.176L147.896 42.824H146.264V50H142.976ZM160.628 50.12V47.384H161.972C162.388 47.384 162.7 47.296 162.908 47.12C163.116 46.944 163.3 46.664 163.46 46.28L163.844 45.44L157.076 32.96H160.724L165.308 42.08L169.292 32.96H172.772L165.98 47.84C165.564 48.688 165.092 49.28 164.564 49.616C164.036 49.952 163.332 50.12 162.452 50.12H160.628ZM173.82 50V32.96H181.044C181.828 32.96 182.548 33.12 183.204 33.44C183.86 33.76 184.428 34.192 184.908 34.736C185.404 35.28 185.788 35.888 186.06 36.56C186.332 37.232 186.468 37.92 186.468 38.624C186.468 39.584 186.244 40.496 185.796 41.36C185.348 42.224 184.732 42.928 183.948 43.472C183.164 44.016 182.236 44.288 181.164 44.288H177.132V50H173.82ZM177.132 41.384H180.972C181.372 41.384 181.732 41.272 182.052 41.048C182.372 40.824 182.628 40.504 182.82 40.088C183.012 39.656 183.108 39.168 183.108 38.624C183.108 38.032 182.996 37.528 182.772 37.112C182.564 36.696 182.284 36.384 181.932 36.176C181.596 35.968 181.228 35.864 180.828 35.864H177.132V41.384ZM187.261 41.36C187.261 40.32 187.445 39.304 187.813 38.312C188.197 37.304 188.749 36.392 189.469 35.576C190.189 34.744 191.069 34.088 192.109 33.608C193.149 33.112 194.333 32.864 195.661 32.864C197.229 32.864 198.581 33.208 199.717 33.896C200.869 34.584 201.725 35.48 202.285 36.584L199.741 38.336C199.453 37.696 199.077 37.192 198.613 36.824C198.149 36.44 197.653 36.176 197.125 36.032C196.597 35.872 196.077 35.792 195.565 35.792C194.733 35.792 194.005 35.96 193.381 36.296C192.773 36.632 192.261 37.072 191.845 37.616C191.429 38.16 191.117 38.768 190.909 39.44C190.717 40.112 190.621 40.784 190.621 41.456C190.621 42.208 190.741 42.936 190.981 43.64C191.221 44.328 191.557 44.944 191.989 45.488C192.437 46.016 192.965 46.44 193.573 46.76C194.197 47.064 194.877 47.216 195.613 47.216C196.141 47.216 196.677 47.128 197.221 46.952C197.765 46.776 198.269 46.496 198.733 46.112C199.197 45.728 199.557 45.232 199.813 44.624L202.525 46.184C202.189 47.032 201.637 47.752 200.869 48.344C200.117 48.936 199.269 49.384 198.325 49.688C197.381 49.992 196.445 50.144 195.517 50.144C194.301 50.144 193.189 49.896 192.181 49.4C191.173 48.888 190.301 48.216 189.565 47.384C188.845 46.536 188.277 45.592 187.861 44.552C187.461 43.496 187.261 42.432 187.261 41.36Z" fill="black"/>
<path d="M335 40.9649L352.193 21L348.333 39.6784L335 40.9649Z" fill="black"/>
<path d="M355 39.0351L337.807 59L341.667 40.3216L355 39.0351Z" fill="black"/>
</g>
<defs>
<clipPath id="clip0_2_839">
<rect width="389" height="80" fill="white"/>
</clipPath>
</defs>
</svg>
