<svg width="84" height="84" viewBox="0 0 84 84" fill="none" xmlns="http://www.w3.org/2000/svg">
<path fill-rule="evenodd" clip-rule="evenodd" d="M82 42C82 64.0914 64.0914 82 42 82C19.9086 82 2 64.0914 2 42C2 19.9086 19.9086 2 42 2C64.0914 2 82 19.9086 82 42ZM84 42C84 65.196 65.196 84 42 84C18.804 84 0 65.196 0 42C0 18.804 18.804 0 42 0C65.196 0 84 18.804 84 42ZM41.12 53.1775C40.3967 53.1232 39.682 53.0214 38.976 52.872C37.888 52.616 36.8533 52.2533 35.872 51.784C34.8907 51.3147 33.9733 50.728 33.12 50.024L34.496 47.592C34.8373 47.9547 35.2747 48.3173 35.808 48.68C36.3627 49.0213 36.9813 49.3413 37.664 49.64C38.368 49.9387 39.1253 50.184 39.936 50.376C40.3777 50.469 40.8257 50.5366 41.28 50.579V42.8946C41.185 42.871 41.089 42.8475 40.992 42.824C39.456 42.44 38.1653 42.024 37.12 41.576C36.0747 41.1067 35.2853 40.4987 34.752 39.752C34.24 39.0053 33.984 38.0347 33.984 36.84C33.984 35.3893 34.336 34.1627 35.04 33.16C35.744 32.1573 36.7147 31.4 37.952 30.888C38.9117 30.4909 39.9677 30.2478 41.12 30.1587V26.92H42.912V30.1408C43.6468 30.1813 44.3401 30.281 44.992 30.44C45.888 30.6533 46.72 30.952 47.488 31.336C48.256 31.72 48.96 32.1787 49.6 32.712L48.256 35.048C48 34.7493 47.6587 34.4613 47.232 34.184C46.8053 33.9067 46.3253 33.6613 45.792 33.448C45.2587 33.2133 44.672 33.032 44.032 32.904C43.6096 32.802 43.1723 32.7349 42.72 32.7025V40.3391C42.794 40.3567 42.8686 40.3743 42.944 40.392C44.5227 40.7333 45.888 41.1493 47.04 41.64C48.192 42.1307 49.0773 42.792 49.696 43.624C50.3147 44.4347 50.624 45.5227 50.624 46.888C50.624 47.976 50.4107 48.9253 49.984 49.736C49.5787 50.5253 49.0027 51.1867 48.256 51.72C47.5093 52.232 46.6347 52.616 45.632 52.872C44.7861 53.07 43.8794 53.1844 42.912 53.2154V56.424H41.12V53.1775ZM42.72 43.2727V50.6289C44.2031 50.5964 45.3658 50.3094 46.208 49.768C47.104 49.1707 47.552 48.3067 47.552 47.176C47.552 46.3227 47.296 45.64 46.784 45.128C46.2933 44.616 45.5573 44.1893 44.576 43.848C44.0247 43.6562 43.406 43.4645 42.72 43.2727ZM41.28 39.9763V32.7051C39.9316 32.7936 38.9076 33.1159 38.208 33.672C37.376 34.3333 36.96 35.24 36.96 36.392C36.96 37.2027 37.1733 37.8427 37.6 38.312C38.0267 38.7813 38.6773 39.1653 39.552 39.464C40.0543 39.6314 40.6303 39.8022 41.28 39.9763Z" fill="#DBFF00"/>
</svg>
