<svg width="92" height="92" viewBox="0 0 92 92" fill="none" xmlns="http://www.w3.org/2000/svg">
<path d="M56.4128 21.3804C55.5452 22.2656 55.0591 23.4557 55.0591 24.6953C55.0591 25.9348 55.5452 27.125 56.4128 28.0102L63.9898 35.5872C64.875 36.4549 66.0652 36.9409 67.3047 36.9409C68.5443 36.9409 69.7344 36.4549 70.6197 35.5872L88.4729 17.7339C90.8541 22.9961 91.5751 28.859 90.5398 34.5413C89.5045 40.2236 86.762 45.4554 82.6778 49.5396C78.5937 53.6237 73.3618 56.3662 67.6795 57.4015C61.9972 58.4369 56.1343 57.7159 50.8722 55.3346L18.1491 88.0577C16.2652 89.9416 13.71 91 11.0457 91C8.38144 91 5.82627 89.9416 3.94233 88.0577C2.05839 86.1737 1 83.6186 1 80.9543C1 78.29 2.05839 75.7348 3.94233 73.8509L36.6654 41.1278C34.2841 35.8657 33.5631 30.0028 34.5985 24.3205C35.6338 18.6382 38.3763 13.4063 42.4604 9.32218C46.5446 5.23803 51.7764 2.49556 57.4587 1.46023C63.141 0.424896 69.0039 1.14589 74.2661 3.52712L56.4602 21.333L56.4128 21.3804Z" stroke="#DBFF00" stroke-width="2" stroke-linecap="round" stroke-linejoin="round"/>
</svg>
