<svg width="252" height="29" viewBox="0 0 252 29" fill="none" xmlns="http://www.w3.org/2000/svg">
<path d="M15.13 17.2771C19.0332 16.297 21.689 13.479 21.689 9.14991C21.689 3.67729 17.5041 0.655103 12.0316 0.655103H0V28.3857H4.38609V17.6447H9.97936L17.7858 28.3857H23.2584L15.13 17.2771ZM4.38609 13.5607V4.82082H11.7097C14.6874 4.82082 17.1822 6.2094 17.1822 9.23159C17.1822 12.2129 14.6874 13.5607 11.7097 13.5607H4.38609Z" fill="white"/>
<path d="M37.0479 28.9983C45.3774 29.1209 51.5341 22.423 51.4133 14.5C51.5341 6.57696 45.3774 -0.120865 37.0479 0.00165477C28.7183 -0.120865 22.6019 6.57696 22.7227 14.5C22.6019 22.423 28.7183 29.1209 37.0479 28.9983ZM37.0479 24.7918C31.0925 24.7918 27.2295 20.3402 27.2295 14.5C27.2295 8.70066 31.0925 4.16738 37.0479 4.16738C43.0838 4.16738 46.8663 8.70066 46.8663 14.5C46.8663 20.3402 43.0838 24.7918 37.0479 24.7918Z" fill="white"/>
<path d="M54.0182 28.3857H58.3641V7.35293L65.0438 17.6447H69.0275L75.7072 7.35293V28.3857H80.0531V0.655103H74.9427L67.0155 13.0297V12.9889L59.1286 0.655103H54.0182V28.3857Z" fill="white"/>
<path d="M81.7089 28.3857H86.8193L89.4348 21.8104H102.593L105.209 28.3857H110.319L98.1668 0.655103H93.8612L81.7089 28.3857ZM91.0846 17.6447L96.0341 5.84183L100.943 17.6447H91.0846Z" fill="white"/>
<path d="M123.241 28.9983C129.398 28.9983 132.214 26.8746 132.858 26.5071V21.7288C130.524 23.7299 126.822 24.7918 123.241 24.7918C116.601 24.7918 112.698 20.3402 112.698 14.5C112.698 8.70066 116.601 4.16738 123.241 4.16738C128.029 4.16738 131.852 6.74032 132.094 7.14873V2.45208C130.685 1.47191 127.748 0.00165477 123.241 0.00165477C114.268 -0.120865 108.03 6.57696 108.151 14.5C108.03 22.423 114.268 29.1209 123.241 28.9983Z" fill="white"/>
<path d="M154.068 0.655103V11.5187H139.864V0.655103H135.478V28.3857H139.864V15.6844H154.068V28.3857H158.454V0.655103H154.068Z" fill="white"/>
<path d="M162.88 28.3857H167.266V0.655103H162.88V28.3857Z" fill="white"/>
<path d="M171.695 28.3857H176.041V7.02621L190.607 28.3857H195.476V0.655103H191.13V21.6471L176.725 0.655103H171.695V28.3857Z" fill="white"/>
<path d="M212.436 28.9983C220.766 29.1209 226.923 22.423 226.802 14.5C226.923 6.57696 220.766 -0.120865 212.436 0.00165477C204.107 -0.120865 197.991 6.57696 198.111 14.5C197.991 22.423 204.107 29.1209 212.436 28.9983ZM212.436 24.7918C206.481 24.7918 202.618 20.3402 202.618 14.5C202.618 8.70066 206.481 4.16738 212.436 4.16738C218.472 4.16738 222.255 8.70066 222.255 14.5C222.255 20.3402 218.472 24.7918 212.436 24.7918Z" fill="white"/>
<path d="M236.669 28.3857H241.578L252 0.655103H247.01L239.003 22.3822L231.236 0.655103H226.247L236.669 28.3857Z" fill="white"/>
</svg>
