<svg width="90" height="90" viewBox="0 0 90 90" fill="none" xmlns="http://www.w3.org/2000/svg">
<path fill-rule="evenodd" clip-rule="evenodd" d="M86 18H4V72H86V18ZM88 4V16V17V18V73V74H87H3H2V73V18V17V16V4V3H3H87H88V4ZM4 5V16H86V5H4Z" fill="#DBFF00"/>
<path d="M51.4721 30.3889V29.3889C51.3703 29.3889 51.269 29.4045 51.1719 29.4351L51.4721 30.3889ZM36.6311 35.0567L36.926 36.0123L36.6311 35.0567ZM33.0718 36.1933L33.3758 37.146C33.5307 37.0966 33.6713 37.0101 33.7853 36.894L33.0718 36.1933ZM31.8643 37.5729L32.8573 37.6914L32.8574 37.6905L31.8643 37.5729ZM29 59.9755L28.0081 59.8484C27.9402 60.3783 28.3007 60.8679 28.8269 60.9604L29 59.9755ZM51.8927 64L51.7196 64.9849C51.8627 65.0101 52.0097 65.0037 52.1501 64.9663L51.8927 64ZM51.8927 30.3603H52.8927C52.8927 29.8081 52.445 29.3603 51.8927 29.3603V30.3603ZM40.2185 44.0993L41.2167 44.0387C41.2164 44.0338 41.216 44.0289 41.2157 44.0239L40.2185 44.0993ZM45.7435 51.1332L46.7419 51.0757L46.7414 51.0682L45.7435 51.1332ZM40.7942 57.4665L40.7333 56.4683L40.7283 56.4687L40.7942 57.4665ZM35.0937 55.5007L34.1197 55.2742C34.045 55.5954 34.1334 55.9327 34.356 56.1759L35.0937 55.5007ZM35.8799 52.1196L36.4922 51.3289C36.2228 51.1204 35.8658 51.0633 35.5448 51.1774C35.2239 51.2916 34.9831 51.5613 34.9059 51.8931L35.8799 52.1196ZM39.5305 53.5636L39.4695 52.5653L39.4561 52.5663L39.5305 53.5636ZM40.9486 51.9981L41.9477 51.9525L41.947 51.9411L40.9486 51.9981ZM36.3643 45.3288L37.3624 45.266L37.3621 45.262L36.3643 45.3288ZM43.49 37.8303L43.4281 36.8322L43.424 36.8324L43.49 37.8303ZM46.4456 38.202L47.4137 38.4524C47.5322 37.9941 47.3132 37.5156 46.889 37.3057L46.4456 38.202ZM45.3013 42.6267L44.8734 43.5306C45.1429 43.6581 45.4552 43.6588 45.7252 43.5324C45.9952 43.406 46.1948 43.1657 46.2694 42.8771L45.3013 42.6267ZM42.465 42.1335L42.5317 43.1314L42.5438 43.1304L42.465 42.1335ZM61 61.574L61.2574 62.5403C61.7468 62.41 62.0614 61.9344 61.99 61.433L61 61.574ZM56.9166 32.9621L55.9274 33.1088C55.9291 33.1206 55.9311 33.1325 55.9333 33.1443L56.9166 32.9621ZM54.189 32.5855L53.4978 33.3082C53.6767 33.4793 53.9127 33.5779 54.1601 33.5851L54.189 32.5855ZM51.8927 30.3406L52.6127 29.6466C52.3297 29.353 51.8967 29.2606 51.5186 29.4132C51.1404 29.5658 50.8927 29.9328 50.8927 30.3406H51.8927ZM44.5092 26.3335L44.9637 25.4427L44.9372 25.4292L44.9099 25.4173L44.5092 26.3335ZM47.2577 27.5356L47.6248 26.6054L47.6133 26.601L47.2577 27.5356ZM51.4721 30.3889C51.1719 29.4351 51.1718 29.4351 51.1717 29.4351C51.1716 29.4352 51.1714 29.4352 51.1712 29.4353C51.1708 29.4354 51.1701 29.4356 51.1693 29.4359C51.1676 29.4364 51.165 29.4372 51.1616 29.4383C51.1548 29.4405 51.1446 29.4437 51.1313 29.4479C51.1045 29.4563 51.0647 29.4688 51.0128 29.4852C50.909 29.5178 50.7568 29.5658 50.5627 29.6269C50.1745 29.749 49.6192 29.9238 48.9507 30.1343C47.6137 30.5551 45.8238 31.1185 44.0121 31.6885C40.3858 32.8296 36.6803 33.9951 36.3363 34.1012L36.926 36.0123C37.277 35.904 40.9919 34.7355 44.6124 33.5963C46.4241 33.0262 48.2141 32.4628 49.5512 32.042C50.2197 31.8316 50.775 31.6568 51.1632 31.5346C51.3573 31.4735 51.5096 31.4255 51.6134 31.3929C51.6653 31.3765 51.705 31.364 51.7318 31.3556C51.7452 31.3514 51.7554 31.3482 51.7622 31.346C51.7656 31.3449 51.7681 31.3441 51.7698 31.3436C51.7707 31.3433 51.7713 31.3431 51.7718 31.343C51.772 31.3429 51.7722 31.3429 51.7723 31.3428C51.7724 31.3428 51.7724 31.3428 51.4721 30.3889ZM36.3363 34.1012C35.2916 34.4235 34.4054 34.7016 33.7754 34.9031C33.461 35.0037 33.2075 35.0861 33.029 35.1459C32.9408 35.1754 32.8653 35.2013 32.8081 35.222C32.7808 35.2318 32.7484 35.2438 32.7175 35.2563C32.7034 35.262 32.6768 35.273 32.6462 35.2877C32.6316 35.2947 32.6035 35.3085 32.57 35.3281C32.5568 35.3358 32.4577 35.3915 32.3583 35.4926L33.7853 36.894C33.6868 36.9943 33.5893 37.0489 33.5783 37.0553C33.5471 37.0735 33.522 37.0858 33.5109 37.0911C33.4876 37.1023 33.4709 37.1089 33.4695 37.1095C33.4639 37.1118 33.4674 37.1102 33.4865 37.1034C33.5219 37.0906 33.5803 37.0705 33.6641 37.0424C33.8299 36.9869 34.0735 36.9076 34.3848 36.808C35.0062 36.6092 35.8856 36.3333 36.926 36.0123L36.3363 34.1012ZM32.7679 35.2406C32.5169 35.3207 32.2664 35.4011 32.0584 35.4912C31.842 35.5849 31.583 35.7247 31.3664 35.9714C31.1436 36.2252 31.0414 36.505 30.9835 36.7433C30.9301 36.9632 30.8994 37.2171 30.8712 37.4553L32.8574 37.6905C32.8888 37.4248 32.9073 37.2963 32.927 37.2155C32.9421 37.1531 32.9369 37.214 32.8694 37.2909C32.8082 37.3606 32.7628 37.3656 32.853 37.3266C32.9514 37.2839 33.1001 37.2339 33.3758 37.146L32.7679 35.2406ZM30.8713 37.4544C30.8264 37.8312 30.1113 43.4241 29.406 48.9341C29.0537 51.6866 28.7042 54.4152 28.4428 56.4556C28.3121 57.4759 28.2034 58.3241 28.1274 58.9172C28.0894 59.2138 28.0596 59.4466 28.0393 59.6052C28.0291 59.6846 28.0213 59.7454 28.0161 59.7863C28.0134 59.8068 28.0115 59.8223 28.0101 59.8327C28.0095 59.8379 28.009 59.8419 28.0086 59.8445C28.0084 59.8458 28.0083 59.8468 28.0082 59.8474C28.0082 59.8478 28.0082 59.848 28.0081 59.8482C28.0081 59.8483 28.0081 59.8484 29 59.9755C29.9919 60.1027 29.9919 60.1026 29.9919 60.1024C29.9919 60.1022 29.992 60.102 29.992 60.1017C29.9921 60.101 29.9922 60.1 29.9924 60.0987C29.9927 60.0961 29.9932 60.0922 29.9939 60.087C29.9952 60.0766 29.9972 60.061 29.9998 60.0406C30.0051 59.9996 30.0129 59.9388 30.0231 59.8595C30.0434 59.7008 30.0732 59.468 30.1112 59.1714C30.1872 58.5782 30.2959 57.73 30.4266 56.7098C30.688 54.6692 31.0375 51.9406 31.3898 49.188C32.0939 43.6879 32.811 38.0795 32.8573 37.6914L30.8713 37.4544ZM28.8269 60.9604L51.7196 64.9849L52.0659 63.0151L29.1731 58.9906L28.8269 60.9604ZM52.8927 64V30.3603H50.8927V64H52.8927ZM51.8927 29.3603C51.7504 29.3603 51.624 29.371 51.5383 29.3793C51.5167 29.3814 51.4968 29.3835 51.4805 29.3852C51.463 29.387 51.4513 29.3882 51.4411 29.3892C51.4089 29.3923 51.4326 29.3889 51.4721 29.3889V31.3889C51.5433 31.3889 51.6116 31.382 51.6346 31.3798C51.652 31.3781 51.6705 31.3762 51.6855 31.3746C51.7017 31.373 51.7166 31.3714 51.7318 31.37C51.7932 31.364 51.8455 31.3603 51.8927 31.3603V29.3603ZM39.2204 44.1599C39.2782 45.1128 39.9389 45.7467 40.4755 46.1644C40.762 46.3873 41.0836 46.6007 41.3926 46.8026C41.7117 47.0112 42.0233 47.2112 42.3379 47.4321C43.5727 48.299 44.624 49.3287 44.7456 51.1981L46.7414 51.0682C46.5612 48.2984 44.9096 46.794 43.4872 45.7953C43.1375 45.5497 42.7877 45.3251 42.4865 45.1283C42.1751 44.9249 41.9174 44.7523 41.7039 44.5861C41.2406 44.2255 41.2185 44.0686 41.2167 44.0387L39.2204 44.1599ZM44.7452 51.1906C44.8387 52.8162 44.4137 54.0984 43.7098 54.9776C43.011 55.8503 41.9872 56.3919 40.7333 56.4684L40.8551 58.4646C42.648 58.3553 44.2042 57.5601 45.271 56.2276C46.3327 54.9015 46.8589 53.11 46.7419 51.0757L44.7452 51.1906ZM40.7283 56.4687C39.1102 56.5756 37.8715 56.1446 37.04 55.6951C36.6224 55.4693 36.3078 55.2388 36.1025 55.0699C36.0001 54.9856 35.9256 54.9173 35.88 54.8735C35.8572 54.8516 35.8416 54.836 35.8335 54.8276C35.8294 54.8234 35.8272 54.821 35.8268 54.8206C35.8266 54.8205 35.8269 54.8208 35.8276 54.8216C35.828 54.822 35.8285 54.8225 35.8291 54.8232C35.8294 54.8235 35.8298 54.8238 35.8301 54.8242C35.8303 54.8244 35.8306 54.8248 35.8307 54.8249C35.831 54.8252 35.8313 54.8255 35.0937 55.5007C34.356 56.1759 34.3564 56.1763 34.3567 56.1767C34.3568 56.1768 34.3572 56.1772 34.3574 56.1774C34.3579 56.178 34.3584 56.1785 34.359 56.1791C34.3601 56.1803 34.3613 56.1816 34.3626 56.1831C34.3654 56.186 34.3686 56.1895 34.3724 56.1935C34.3799 56.2014 34.3894 56.2114 34.4011 56.2234C34.4243 56.2472 34.4558 56.2788 34.4955 56.3168C34.5748 56.3929 34.687 56.4952 34.8316 56.6142C35.1204 56.8519 35.5412 57.1584 36.0889 57.4544C37.188 58.0486 38.7995 58.6005 40.8601 58.4643L40.7283 56.4687ZM36.0677 55.7272L36.854 52.3461L34.9059 51.8931L34.1197 55.2742L36.0677 55.7272ZM35.8799 52.1196C35.2677 52.9103 35.2679 52.9104 35.2681 52.9106C35.2682 52.9106 35.2683 52.9108 35.2685 52.9109C35.2688 52.9111 35.2691 52.9114 35.2694 52.9116C35.2701 52.9122 35.2709 52.9128 35.2719 52.9135C35.2738 52.915 35.2761 52.9168 35.279 52.919C35.2847 52.9233 35.2924 52.9292 35.302 52.9364C35.3211 52.9507 35.3478 52.9706 35.3814 52.9951C35.4486 53.044 35.5439 53.1117 35.6625 53.1916C35.8987 53.3508 36.2329 53.5621 36.6258 53.7705C37.3681 54.1643 38.4939 54.6437 39.6049 54.5608L39.4561 52.5663C38.9384 52.605 38.2389 52.3623 37.5631 52.0038C37.247 51.836 36.9739 51.6636 36.7801 51.533C36.6837 51.4681 36.6084 51.4144 36.5586 51.3782C36.5338 51.3601 36.5154 51.3464 36.5041 51.338C36.4985 51.3337 36.4946 51.3308 36.4926 51.3292C36.4916 51.3285 36.491 51.328 36.4909 51.328C36.4909 51.328 36.491 51.328 36.4912 51.3282C36.4913 51.3283 36.4914 51.3284 36.4916 51.3285C36.4917 51.3285 36.4918 51.3286 36.4918 51.3287C36.492 51.3288 36.4922 51.3289 35.8799 52.1196ZM39.5915 54.5617C40.4224 54.5109 41.0526 54.1185 41.4493 53.5814C41.8233 53.0752 41.9712 52.4696 41.9476 51.9525L39.9497 52.0437C39.9541 52.1414 39.9195 52.2863 39.8407 52.393C39.8061 52.4398 39.7658 52.4759 39.7174 52.5026C39.6702 52.5286 39.5936 52.5578 39.4695 52.5654L39.5915 54.5617ZM41.947 51.9411C41.8922 50.9818 41.4482 50.2887 40.9141 49.7557C40.43 49.2726 39.7732 48.8368 39.2985 48.4833C38.7762 48.0944 38.3311 47.7131 37.9947 47.2271C37.6698 46.7577 37.4179 46.1481 37.3624 45.266L35.3663 45.3916C35.4442 46.6289 35.8136 47.5901 36.3502 48.3654C36.8753 49.1241 37.532 49.6614 38.104 50.0874C38.7236 50.5488 39.1536 50.8243 39.5012 51.1712C39.7988 51.4683 39.9313 51.7241 39.9503 52.0551L41.947 51.9411ZM37.3621 45.262C37.2582 43.7097 37.7057 42.1828 38.6967 41.0149C39.678 39.8586 41.255 38.9804 43.556 38.8281L43.424 36.8324C40.6492 37.0161 38.5441 38.1037 37.1718 39.7209C35.8093 41.3265 35.2318 43.3809 35.3666 45.3955L37.3621 45.262ZM43.5519 38.8283C44.436 38.7735 45.0821 38.8585 45.4885 38.9474C45.6922 38.992 45.837 39.0379 45.9226 39.0685C45.9655 39.0838 45.9935 39.0953 46.0068 39.1009C46.0134 39.1038 46.0164 39.1051 46.0156 39.1048C46.0152 39.1046 46.0139 39.104 46.0116 39.1029C46.0105 39.1024 46.0092 39.1017 46.0076 39.1009C46.0068 39.1006 46.0059 39.1001 46.005 39.0997C46.0046 39.0995 46.0041 39.0992 46.0036 39.099C46.0034 39.0989 46.003 39.0987 46.0029 39.0986C46.0025 39.0985 46.0021 39.0983 46.4456 38.202C46.889 37.3057 46.8886 37.3055 46.8882 37.3053C46.8881 37.3052 46.8877 37.305 46.8874 37.3049C46.8869 37.3046 46.8863 37.3043 46.8858 37.3041C46.8846 37.3035 46.8834 37.3029 46.8821 37.3023C46.8795 37.301 46.8767 37.2997 46.8737 37.2982C46.8675 37.2953 46.8604 37.2919 46.8522 37.2882C46.8359 37.2806 46.8155 37.2715 46.791 37.2611C46.7421 37.2402 46.677 37.2142 46.5958 37.1851C46.4332 37.1271 46.2064 37.0572 45.9161 36.9937C45.3343 36.8664 44.5027 36.7655 43.4281 36.8322L43.5519 38.8283ZM45.4774 37.9516L44.3331 42.3764L46.2694 42.8771L47.4137 38.4524L45.4774 37.9516ZM45.3013 42.6267C45.7291 41.7229 45.7288 41.7228 45.7286 41.7226C45.7285 41.7226 45.7283 41.7225 45.7281 41.7224C45.7277 41.7222 45.7273 41.7221 45.7269 41.7219C45.7262 41.7215 45.7253 41.7211 45.7243 41.7206C45.7224 41.7197 45.7202 41.7187 45.7176 41.7175C45.7125 41.7152 45.7061 41.7122 45.6984 41.7088C45.6831 41.7018 45.6628 41.6928 45.6377 41.682C45.5875 41.6604 45.518 41.6316 45.4314 41.5985C45.2586 41.5324 45.0152 41.4481 44.7185 41.3686C44.1311 41.2112 43.3031 41.0642 42.3862 41.1366L42.5438 43.1304C43.1645 43.0813 43.7545 43.1809 44.2009 43.3005C44.4211 43.3595 44.5984 43.4212 44.7172 43.4666C44.7764 43.4893 44.8204 43.5076 44.8472 43.5191C44.8606 43.5249 44.8697 43.529 44.8741 43.531C44.8764 43.532 44.8774 43.5325 44.8773 43.5324C44.8773 43.5324 44.8769 43.5322 44.8763 43.5319C44.876 43.5318 44.8756 43.5316 44.8751 43.5314C44.8748 43.5313 44.8746 43.5311 44.8743 43.531C44.8742 43.531 44.8739 43.5308 44.8739 43.5308C44.8737 43.5307 44.8734 43.5306 45.3013 42.6267ZM42.3984 41.1357C41.0477 41.226 40.1549 41.7318 39.6569 42.4783C39.1931 43.1736 39.2 43.8923 39.2214 44.1746L41.2157 44.0239C41.2089 43.9345 41.2158 43.7454 41.3207 43.5882C41.3913 43.4823 41.6359 43.1911 42.5317 43.1313L42.3984 41.1357ZM52.1501 64.9663L61.2574 62.5403L60.7426 60.6077L51.6353 63.0337L52.1501 64.9663ZM61 61.574C61.99 61.433 61.99 61.4329 61.99 61.4327C61.9899 61.4325 61.9899 61.4321 61.9898 61.4317C61.9897 61.4309 61.9895 61.4296 61.9893 61.4278C61.9888 61.4244 61.988 61.4192 61.9871 61.4124C61.9851 61.3987 61.9822 61.3784 61.9784 61.3515C61.9707 61.2977 61.9594 61.2179 61.9445 61.1137C61.9149 60.9055 61.8714 60.6001 61.816 60.2113C61.7052 59.4337 61.5469 58.3227 61.3569 56.9888C60.9768 54.3211 60.4696 50.7623 59.9614 47.1975C58.9487 40.0948 57.9223 32.9013 57.8998 32.7798L55.9333 33.1443C55.9327 33.1411 55.9946 33.568 56.1122 34.3875C56.2262 35.1825 56.3872 36.308 56.5794 37.6535C56.9638 40.3446 57.4731 43.9151 57.9814 47.4798C58.4896 51.0445 58.9968 54.6033 59.3769 57.2709C59.5669 58.6048 59.7252 59.7158 59.836 60.4934C59.8913 60.8821 59.9349 61.1876 59.9645 61.3958C59.9793 61.4999 59.9907 61.5797 59.9984 61.6335C60.0022 61.6604 60.0051 61.6808 60.0071 61.6944C60.008 61.7013 60.0088 61.7064 60.0093 61.7099C60.0095 61.7116 60.0097 61.7129 60.0098 61.7137C60.0099 61.7142 60.0099 61.7145 60.0099 61.7147C60.01 61.7149 60.01 61.715 61 61.574ZM57.9057 32.8154C57.8109 32.176 57.2693 31.6507 56.5885 31.6507V33.6507C56.2009 33.6507 55.9664 33.3716 55.9274 33.1088L57.9057 32.8154ZM56.5885 31.6507C56.5905 31.6507 56.5826 31.6506 56.5568 31.6501C56.5342 31.6497 56.5041 31.649 56.4669 31.6482C56.3926 31.6464 56.2937 31.6439 56.1781 31.6408C55.9471 31.6348 55.6524 31.6266 55.3618 31.6185C55.0713 31.6103 54.7853 31.6022 54.5719 31.5961C54.4653 31.593 54.3767 31.5905 54.3149 31.5887C54.284 31.5878 54.2597 31.5871 54.2432 31.5866C54.235 31.5864 54.2286 31.5862 54.2244 31.5861C54.2223 31.586 54.2206 31.586 54.2196 31.586C54.219 31.5859 54.2186 31.5859 54.2184 31.5859C54.2182 31.5859 54.2181 31.5859 54.2181 31.5859C54.218 31.5859 54.218 31.5859 54.218 31.5859C54.218 31.5859 54.218 31.5859 54.189 32.5855C54.1601 33.5851 54.1601 33.5851 54.1601 33.5851C54.1602 33.5851 54.1602 33.5851 54.1602 33.5851C54.1603 33.5851 54.1604 33.5851 54.1605 33.5851C54.1608 33.5851 54.1612 33.5851 54.1618 33.5851C54.1629 33.5852 54.1645 33.5852 54.1666 33.5853C54.1709 33.5854 54.1772 33.5856 54.1855 33.5858C54.2021 33.5863 54.2264 33.587 54.2573 33.5879C54.3193 33.5897 54.4079 33.5922 54.5147 33.5953C54.7283 33.6014 55.0147 33.6095 55.3058 33.6177C55.873 33.6336 56.4967 33.6507 56.5885 33.6507V31.6507ZM54.189 32.5855C54.8802 31.8628 54.8802 31.8628 54.8802 31.8628C54.8802 31.8628 54.8802 31.8628 54.8802 31.8628C54.8801 31.8627 54.8801 31.8627 54.88 31.8626C54.8798 31.8624 54.8795 31.8621 54.8791 31.8617C54.8783 31.861 54.8771 31.8598 54.8755 31.8583C54.8724 31.8553 54.8676 31.8508 54.8614 31.8448C54.8489 31.8329 54.8306 31.8153 54.8069 31.7926C54.7597 31.7473 54.6914 31.6818 54.6075 31.6013C54.4398 31.4401 54.2101 31.2188 53.9617 30.9783C53.46 30.4923 52.8988 29.9434 52.6127 29.6466L51.1727 31.0346C51.487 31.3606 52.0739 31.9341 52.5702 32.4149C52.821 32.6577 53.0527 32.8809 53.2218 33.0434C53.3063 33.1246 53.3752 33.1907 53.423 33.2365C53.447 33.2594 53.4656 33.2773 53.4783 33.2895C53.4846 33.2955 53.4895 33.3002 53.4928 33.3033C53.4944 33.3049 53.4957 33.3061 53.4965 33.3069C53.4969 33.3073 53.4973 33.3076 53.4975 33.3078C53.4976 33.3079 53.4977 33.308 53.4977 33.3081C53.4978 33.3081 53.4978 33.3081 53.4978 33.3081C53.4978 33.3082 53.4978 33.3082 54.189 32.5855ZM50.8927 30.3406V64H52.8927V30.3406H50.8927ZM37.8341 35.141C38.181 33.3708 38.9618 30.8767 40.137 29.0924C40.7243 28.2006 41.3569 27.5682 42.0034 27.2474C42.6034 26.9497 43.2771 26.886 44.1085 27.2497L44.9099 25.4173C43.5425 24.8192 42.2498 24.8925 41.1144 25.4558C40.0256 25.9961 39.1538 26.9491 38.4667 27.9923C37.093 30.0782 36.2444 32.8534 35.8714 34.7564L37.8341 35.141ZM44.0547 27.2242C44.6219 27.5136 44.9697 28.1304 45.145 29.0924C45.3205 30.0547 45.2761 31.08 45.2761 31.9434H47.2761C47.2761 31.204 47.3298 29.9252 47.1126 28.7337C46.8953 27.5419 46.3597 26.1551 44.9637 25.4427L44.0547 27.2242ZM41.951 34.1667C42.2571 32.808 42.831 30.9933 43.7276 29.7192C44.1713 29.0888 44.6471 28.6585 45.141 28.4432C45.6036 28.2415 46.1658 28.1901 46.902 28.4703L47.6133 26.601C46.4256 26.1491 45.3193 26.1836 44.3417 26.6099C43.3954 27.0224 42.6592 27.7623 42.092 28.5682C40.967 30.1668 40.3237 32.2898 39.9999 33.7272L41.951 34.1667ZM46.8906 28.4658C47.1229 28.5575 47.4258 28.8852 47.718 29.5326C47.9879 30.1304 48.1515 30.7792 48.2496 31.1796L50.1921 30.7037C50.0939 30.3027 49.8943 29.4925 49.5409 28.7097C49.2098 27.9764 48.6292 27.0018 47.6247 26.6054L46.8906 28.4658Z" fill="#DBFF00"/>
<circle cx="9.5" cy="10.5" r="2.5" stroke="#DBFF00" stroke-width="2"/>
<circle cx="18.5" cy="10.5" r="2.5" stroke="#DBFF00" stroke-width="2"/>
<circle cx="27.5" cy="10.5" r="2.5" stroke="#DBFF00" stroke-width="2"/>
</svg>
