<svg width="80" height="92" viewBox="0 0 80 92" fill="none" xmlns="http://www.w3.org/2000/svg">
<path d="M6.24222 46.3369C3.3412 50.3635 1.50764 55.1593 1.04078 60.0993C0.965965 61.9367 1.00337 63.8117 1.07819 65.6867C1.86377 74.4616 7.17577 82.6365 14.7323 87.0989C19.2961 89.7989 24.6455 91.2614 29.9949 90.9614C38.7111 90.8114 47.2028 86.1239 52.1033 78.924C55.1334 74.6116 56.8542 69.3991 57.1535 64.1492C57.2657 53.2368 57.1909 42.287 57.2283 31.3371C59.1735 32.6121 61.1562 33.8496 63.2885 34.8246C68.189 37.1495 73.6132 38.2745 79 38.462V23.3497C73.2391 22.7122 67.3286 20.7998 63.1388 16.6373C58.9491 12.5874 56.8916 6.73743 56.5923 1C51.7292 1.0375 46.8661 1 41.9656 1.075C41.8534 16.1498 41.9282 31.2246 41.8908 46.3369C41.8534 53.0493 42.003 59.7243 41.629 66.4367C41.5915 67.8992 40.806 69.1741 40.0952 70.4116C37.9255 73.9741 33.9228 76.4116 29.7331 76.4491C23.4484 77.0116 17.5379 71.8366 16.6401 65.6867C16.6027 63.6617 16.3783 61.5617 17.1638 59.6493C18.099 56.9868 19.8946 54.6243 22.2514 53.0868C25.5059 50.8369 29.8453 50.4994 33.5487 51.6994C33.5487 46.1494 33.7732 40.5995 33.6984 35.0496C32.8044 34.8802 31.9036 34.761 31 34.6899M20.0909 35C20.0909 37.2593 18.2593 39.0909 16 39.0909C13.7407 39.0909 11.9091 37.2593 11.9091 35C11.9091 32.7407 13.7407 30.9091 16 30.9091C18.2593 30.9091 20.0909 32.7407 20.0909 35ZM26.0909 39.0909C25.9094 39.5022 25.8552 39.9584 25.9354 40.4008C26.0157 40.8432 26.2265 41.2513 26.5409 41.5727L26.6227 41.6545C26.8763 41.9078 27.0775 42.2086 27.2147 42.5397C27.352 42.8708 27.4226 43.2257 27.4226 43.5841C27.4226 43.9425 27.352 44.2974 27.2147 44.6285C27.0775 44.9596 26.8763 45.2603 26.6227 45.5136C26.3694 45.7672 26.0686 45.9684 25.7376 46.1056C25.4065 46.2429 25.0516 46.3135 24.6932 46.3135C24.3348 46.3135 23.9799 46.2429 23.6488 46.1056C23.3177 45.9684 23.0169 45.7672 22.7636 45.5136L22.6818 45.4318C22.3604 45.1175 21.9523 44.9066 21.5099 44.8264C21.0675 44.7462 20.6113 44.8003 20.2 44.9818C19.7967 45.1547 19.4527 45.4417 19.2104 45.8075C18.9681 46.1734 18.8381 46.6021 18.8364 47.0409V47.2727C18.8364 47.996 18.549 48.6897 18.0376 49.2012C17.5261 49.7127 16.8324 50 16.1091 50C15.3858 50 14.6921 49.7127 14.1806 49.2012C13.6692 48.6897 13.3818 47.996 13.3818 47.2727V47.15C13.3713 46.6986 13.2252 46.2609 12.9625 45.8937C12.6999 45.5265 12.3328 45.2468 11.9091 45.0909C11.4978 44.9094 11.0416 44.8552 10.5992 44.9354C10.1568 45.0157 9.74865 45.2265 9.42727 45.5409L9.34545 45.6227C9.09216 45.8763 8.79138 46.0775 8.46029 46.2147C8.12921 46.352 7.77432 46.4226 7.41591 46.4226C7.0575 46.4226 6.70261 46.352 6.37153 46.2147C6.04044 46.0775 5.73965 45.8763 5.48636 45.6227C5.23279 45.3694 5.03163 45.0686 4.89438 44.7376C4.75713 44.4065 4.68649 44.0516 4.68649 43.6932C4.68649 43.3348 4.75713 42.9799 4.89438 42.6488C5.03163 42.3177 5.23279 42.0169 5.48636 41.7636L5.56818 41.6818C5.88255 41.3604 6.09344 40.9523 6.17364 40.5099C6.25385 40.0675 6.1997 39.6113 6.01818 39.2C5.84532 38.7967 5.5583 38.4527 5.19245 38.2104C4.8266 37.9681 4.39789 37.8381 3.95909 37.8364H3.72727C3.00396 37.8364 2.31026 37.549 1.7988 37.0376C1.28734 36.5261 1 35.8324 1 35.1091C1 34.3858 1.28734 33.6921 1.7988 33.1806C2.31026 32.6692 3.00396 32.3818 3.72727 32.3818H3.85C4.30136 32.3713 4.7391 32.2252 5.10632 31.9625C5.47354 31.6999 5.75325 31.3328 5.90909 30.9091C6.09061 30.4978 6.14476 30.0416 6.06455 29.5992C5.98434 29.1568 5.77346 28.7487 5.45909 28.4273L5.37727 28.3455C5.1237 28.0922 4.92254 27.7914 4.78529 27.4603C4.64804 27.1292 4.5774 26.7743 4.5774 26.4159C4.5774 26.0575 4.64804 25.7026 4.78529 25.3715C4.92254 25.0404 5.1237 24.7397 5.37727 24.4864C5.63056 24.2328 5.93135 24.0316 6.26244 23.8944C6.59352 23.7571 6.94841 23.6865 7.30682 23.6865C7.66522 23.6865 8.02012 23.7571 8.3512 23.8944C8.68229 24.0316 8.98307 24.2328 9.23636 24.4864L9.31818 24.5682C9.63956 24.8826 10.0477 25.0934 10.4901 25.1736C10.9325 25.2539 11.3887 25.1997 11.8 25.0182H11.9091C12.3124 24.8453 12.6564 24.5583 12.8987 24.1925C13.141 23.8266 13.271 23.3979 13.2727 22.9591V22.7273C13.2727 22.004 13.5601 21.3103 14.0715 20.7988C14.583 20.2873 15.2767 20 16 20C16.7233 20 17.417 20.2873 17.9285 20.7988C18.4399 21.3103 18.7273 22.004 18.7273 22.7273V22.85C18.729 23.2888 18.859 23.7175 19.1013 24.0834C19.3436 24.4492 19.6876 24.7362 20.0909 24.9091C20.5022 25.0906 20.9584 25.1448 21.4008 25.0646C21.8432 24.9843 22.2513 24.7735 22.5727 24.4591L22.6545 24.3773C22.9078 24.1237 23.2086 23.9225 23.5397 23.7853C23.8708 23.648 24.2257 23.5774 24.5841 23.5774C24.9425 23.5774 25.2974 23.648 25.6285 23.7853C25.9596 23.9225 26.2603 24.1237 26.5136 24.3773C26.7672 24.6306 26.9684 24.9314 27.1056 25.2624C27.2429 25.5935 27.3135 25.9484 27.3135 26.3068C27.3135 26.6652 27.2429 27.0201 27.1056 27.3512C26.9684 27.6823 26.7672 27.9831 26.5136 28.2364L26.4318 28.3182C26.1175 28.6396 25.9066 29.0477 25.8264 29.4901C25.7462 29.9325 25.8003 30.3887 25.9818 30.8V30.9091C26.1547 31.3124 26.4417 31.6564 26.8075 31.8987C27.1734 32.141 27.6021 32.271 28.0409 32.2727H28.2727C28.996 32.2727 29.6897 32.5601 30.2012 33.0715C30.7127 33.583 31 34.2767 31 35C31 35.7233 30.7127 36.417 30.2012 36.9285C29.6897 37.4399 28.996 37.7273 28.2727 37.7273H28.15C27.7112 37.729 27.2825 37.859 26.9166 38.1013C26.5508 38.3436 26.2638 38.6876 26.0909 39.0909Z" stroke="#DBFF00" stroke-width="2" stroke-linejoin="round"/>
</svg>
