<svg width="79" height="92" viewBox="0 0 79 92" fill="none" xmlns="http://www.w3.org/2000/svg">
<path d="M55.0736 11.3949V10.3949C54.9732 10.3949 54.8735 10.41 54.7776 10.4397L55.0736 11.3949ZM19.3624 22.4502L19.653 23.407L19.3624 22.4502ZM10.7978 25.1421L11.0974 26.0961C11.2515 26.0477 11.3916 25.9627 11.5057 25.8484L10.7978 25.1421ZM7.89223 28.4096L8.88496 28.5299L8.88507 28.529L7.89223 28.4096ZM1 81.4684L0.00837028 81.3393C-0.060836 81.8708 0.301342 82.3624 0.829501 82.4537L1 81.4684ZM56.0856 91L55.9151 91.9854C56.0562 92.0098 56.2008 92.0036 56.3393 91.9673L56.0856 91ZM56.0856 11.3271H57.0856C57.0856 10.7748 56.6379 10.3271 56.0856 10.3271V11.3271ZM27.9946 43.8667L28.9927 43.8051C28.9924 43.8002 28.992 43.7952 28.9916 43.7902L27.9946 43.8667ZM41.2891 60.5259L42.2875 60.4675L42.287 60.4599L41.2891 60.5259ZM29.3798 75.5259L29.3198 74.5277L29.3149 74.528L29.3798 75.5259ZM15.6629 70.8702L14.6897 70.6402C14.6129 70.965 14.7033 71.3068 14.9306 71.5512L15.6629 70.8702ZM17.5549 62.8622L18.161 62.0669C17.8916 61.8616 17.5367 61.8066 17.2178 61.9208C16.8989 62.0349 16.6595 62.3027 16.5817 62.6323L17.5549 62.8622ZM26.3391 66.2821L26.279 65.2838L26.2658 65.2848L26.3391 66.2821ZM29.7514 62.5744L30.7504 62.5281L30.7497 62.5165L29.7514 62.5744ZM18.7205 46.7787L19.7184 46.7149L19.7182 46.7109L18.7205 46.7787ZM35.8666 29.019L35.8056 28.0209L35.8016 28.0212L35.8666 29.019ZM42.9784 29.8994L43.9456 30.1535C44.0668 29.6921 43.8452 29.2092 43.4162 29.0003L42.9784 29.8994ZM40.2249 40.3791L39.8026 41.2856C40.0712 41.4107 40.3816 41.4103 40.6499 41.2843C40.9181 41.1584 41.1167 40.9199 41.1921 40.6332L40.2249 40.3791ZM33.4002 39.2109L33.4659 40.2089L33.4778 40.2079L33.4002 39.2109ZM78 85.2543L78.2536 86.2216C78.7458 86.0925 79.0626 85.6146 78.9897 85.1111L78 85.2543ZM68.1742 17.4891L67.1854 17.6381C67.1872 17.6502 67.1892 17.6622 67.1915 17.6742L68.1742 17.4891ZM61.6111 16.5972L60.9257 17.3254C61.104 17.4933 61.3378 17.5899 61.5827 17.5968L61.6111 16.5972ZM56.0856 11.2803L56.8001 10.5806C56.5158 10.2903 56.084 10.2009 55.7078 10.3544C55.3315 10.508 55.0856 10.8739 55.0856 11.2803H56.0856ZM38.319 1.78979L38.7679 0.896173L38.7415 0.882943L38.7144 0.871286L38.319 1.78979ZM44.9325 4.63704L45.2946 3.70482L45.2833 3.70057L44.9325 4.63704ZM55.0736 11.3949C54.7776 10.4397 54.7775 10.4397 54.7772 10.4398C54.777 10.4399 54.7766 10.44 54.776 10.4401C54.775 10.4405 54.7735 10.4409 54.7714 10.4416C54.7673 10.4429 54.7611 10.4448 54.7529 10.4473C54.7366 10.4524 54.7121 10.4599 54.6799 10.4699C54.6155 10.4899 54.5198 10.5195 54.3949 10.5582C54.1452 10.6356 53.7788 10.7492 53.3117 10.8939C52.3777 11.1833 51.0416 11.5972 49.4329 12.0956C46.2157 13.0924 41.9086 14.4267 37.5493 15.7768C28.8276 18.4781 19.9045 21.2404 19.0718 21.4933L19.653 23.407C20.4927 23.152 29.4251 20.3867 38.141 17.6873C42.5004 16.3371 46.8075 15.0028 50.0248 14.006C51.6335 13.5077 52.9696 13.0937 53.9037 12.8043C54.3707 12.6596 54.7372 12.546 54.9869 12.4686C55.1117 12.4299 55.2074 12.4003 55.2719 12.3803C55.3041 12.3703 55.3285 12.3628 55.3449 12.3577C55.3531 12.3552 55.3592 12.3532 55.3634 12.352C55.3654 12.3513 55.367 12.3509 55.368 12.3505C55.3685 12.3504 55.3689 12.3502 55.3692 12.3502C55.3694 12.3501 55.3696 12.35 55.0736 11.3949ZM19.0718 21.4933C16.5611 22.2558 14.4334 22.9129 12.9237 23.3883C12.1693 23.6258 11.5663 23.8189 11.1459 23.9574C10.9367 24.0264 10.7671 24.0837 10.6449 24.1271C10.5852 24.1483 10.5275 24.1694 10.4791 24.1888C10.4562 24.1979 10.4227 24.2116 10.3873 24.2284C10.3701 24.2364 10.3401 24.251 10.3052 24.2711C10.2908 24.2794 10.1904 24.335 10.0899 24.4357L11.5057 25.8484C11.4073 25.947 11.3107 26 11.3017 26.0052C11.2722 26.0221 11.2492 26.0331 11.2408 26.0371C11.2228 26.0456 11.2133 26.0491 11.2209 26.0461C11.2333 26.0411 11.2622 26.0302 11.3139 26.0118C11.4145 25.9761 11.5671 25.9244 11.772 25.8569C12.1799 25.7225 12.7731 25.5325 13.5243 25.296C15.0257 24.8232 17.1465 24.1682 19.653 23.407L19.0718 21.4933ZM10.4982 24.188C9.87695 24.3831 9.34614 24.5524 8.92315 24.7327C8.49247 24.9162 8.083 25.147 7.75621 25.5134C7.42208 25.888 7.25023 26.3184 7.14018 26.7642C7.03488 27.1907 6.96951 27.7072 6.89938 28.2901L8.88507 28.529C8.95853 27.9183 9.0114 27.5291 9.0819 27.2435C9.14764 26.9772 9.20912 26.8891 9.24874 26.8447C9.29571 26.792 9.40041 26.7033 9.7072 26.5726C10.0217 26.4386 10.4516 26.2989 11.0974 26.0961L10.4982 24.188ZM6.89949 28.2892C6.79039 29.1892 5.06837 42.4461 3.37211 55.4893C2.52431 62.0084 1.68338 68.4709 1.05439 73.3036C0.739899 75.72 0.478393 77.7289 0.295511 79.1337C0.204069 79.8361 0.132284 80.3875 0.0833592 80.7633C0.0588968 80.9512 0.0401495 81.0952 0.0275178 81.1922C0.021202 81.2407 0.016415 81.2775 0.0132071 81.3021C0.0116031 81.3144 0.0103939 81.3237 0.00958568 81.3299C0.00918156 81.333 0.00887769 81.3354 0.00867492 81.3369C0.00857347 81.3377 0.00849736 81.3383 0.00844651 81.3387C0.00839573 81.3391 0.00837028 81.3393 1 81.4684C1.99163 81.5975 1.99166 81.5973 1.99171 81.5969C1.99176 81.5965 1.99183 81.5959 1.99193 81.5952C1.99214 81.5936 1.99244 81.5913 1.99285 81.5882C1.99365 81.582 1.99486 81.5727 1.99647 81.5603C1.99968 81.5357 2.00446 81.4989 2.01078 81.4504C2.02341 81.3534 2.04216 81.2094 2.06662 81.0215C2.11555 80.6457 2.18733 80.0943 2.27878 79.3919C2.46166 77.9871 2.72317 75.9781 3.03766 73.5618C3.66666 68.729 4.5076 62.2664 5.35541 55.7473C7.05037 42.714 8.77446 29.4414 8.88496 28.5299L6.89949 28.2892ZM0.829501 82.4537L55.9151 91.9854L56.2561 90.0146L1.1705 80.483L0.829501 82.4537ZM57.0856 91V11.3271H55.0856V91H57.0856ZM56.0856 10.3271C55.8107 10.3271 55.5593 10.3475 55.3704 10.3655C55.323 10.3701 55.2786 10.3746 55.2394 10.3785C55.1991 10.3826 55.1661 10.386 55.1365 10.3888C55.0656 10.3956 55.0571 10.3949 55.0736 10.3949V12.3949C55.1661 12.3949 55.2651 12.3856 55.3269 12.3797C55.3637 12.3762 55.4034 12.3722 55.4413 12.3683C55.4803 12.3644 55.5197 12.3604 55.5608 12.3565C55.7259 12.3407 55.9044 12.3271 56.0856 12.3271V10.3271ZM26.9965 43.9283C27.0971 45.5597 28.2459 46.7351 29.4827 47.6826C30.1208 48.1713 30.8497 48.6485 31.5948 49.1277C32.3502 49.6135 33.1269 50.1043 33.9086 50.6445C37.0145 52.7909 39.9583 55.5545 40.2913 60.5919L42.287 60.4599C41.8936 54.5096 38.3337 51.2715 35.0457 48.9992C34.2289 48.4347 33.414 47.9198 32.6766 47.4456C31.929 46.9648 31.264 46.5277 30.699 46.0949C29.5297 45.1991 29.0356 44.5016 28.9927 43.8051L26.9965 43.9283ZM40.2908 60.5843C40.532 64.7099 39.4404 68.0925 37.498 70.4804C35.5599 72.863 32.7214 74.3235 29.3198 74.5277L29.4397 76.5241C33.3696 76.2882 36.7392 74.5827 39.0495 71.7424C41.3557 68.9074 42.553 65.0101 42.2874 60.4675L40.2908 60.5843ZM29.3149 74.528C25.1065 74.8017 21.8612 73.6961 19.6716 72.5311C18.575 71.9476 17.7433 71.349 17.1908 70.9015C16.9147 70.6779 16.7091 70.4926 16.5757 70.3667C16.509 70.3038 16.4605 70.2557 16.4303 70.2252C16.4152 70.21 16.4047 70.1991 16.3989 70.193C16.3959 70.1899 16.3941 70.1881 16.3935 70.1874C16.3932 70.1871 16.3932 70.1871 16.3935 70.1873C16.3936 70.1875 16.3938 70.1877 16.3941 70.188C16.3942 70.1882 16.3945 70.1884 16.3946 70.1885C16.3949 70.1888 16.3952 70.1892 15.6629 70.8702C14.9306 71.5512 14.9309 71.5515 14.9313 71.5519C14.9314 71.5521 14.9318 71.5525 14.9321 71.5528C14.9327 71.5534 14.9333 71.5541 14.9341 71.5549C14.9355 71.5564 14.9373 71.5583 14.9393 71.5605C14.9435 71.5649 14.9488 71.5705 14.9553 71.5773C14.9684 71.5909 14.9863 71.6094 15.009 71.6323C15.0544 71.6782 15.1191 71.742 15.2027 71.8209C15.37 71.9789 15.6136 72.1978 15.932 72.4557C16.5683 72.971 17.5061 73.6443 18.7322 74.2967C21.1881 75.6034 24.8012 76.8258 29.4447 76.5238L29.3149 74.528ZM16.6361 71.1001L18.5281 63.0922L16.5817 62.6323L14.6897 70.6402L16.6361 71.1001ZM17.5549 62.8622C16.9487 63.6576 16.9489 63.6577 16.9491 63.6579C16.9492 63.658 16.9494 63.6581 16.9496 63.6583C16.95 63.6586 16.9504 63.6589 16.9509 63.6593C16.952 63.6601 16.9533 63.6611 16.9549 63.6623C16.9582 63.6648 16.9626 63.6681 16.9682 63.6723C16.9794 63.6807 16.9952 63.6926 17.0155 63.7076C17.056 63.7375 17.1143 63.7803 17.1891 63.8338C17.3385 63.9409 17.5538 64.0915 17.8236 64.2705C18.3621 64.6276 19.1232 65.1011 20.0144 65.5665C21.7544 66.4751 24.1607 67.4448 26.4123 67.2794L26.2658 65.2848C24.5983 65.4073 22.6126 64.667 20.9402 63.7937C20.1253 63.3681 19.4251 62.9327 18.929 62.6037C18.6814 62.4395 18.486 62.3027 18.3541 62.2082C18.2881 62.1609 18.2381 62.1242 18.2054 62.1001C18.1891 62.088 18.1771 62.079 18.1696 62.0734C18.1659 62.0706 18.1633 62.0686 18.1619 62.0675C18.1611 62.067 18.1607 62.0667 18.1606 62.0665C18.1605 62.0665 18.1605 62.0665 18.1606 62.0665C18.1606 62.0666 18.1607 62.0667 18.1607 62.0667C18.1609 62.0668 18.161 62.0669 17.5549 62.8622ZM26.3991 67.2803C27.9647 67.1862 29.1029 66.4736 29.8206 65.5174C30.5155 64.5915 30.794 63.4698 30.7503 62.5281L28.7525 62.6208C28.7763 63.135 28.6156 63.791 28.221 64.3169C27.8491 64.8124 27.2474 65.2257 26.2791 65.2839L26.3991 67.2803ZM30.7497 62.5165C30.6425 60.6694 29.7883 59.3258 28.6692 58.2264C27.6 57.176 26.1787 56.2546 24.9348 55.3429C23.6427 54.3959 22.4239 53.3855 21.483 52.0475C20.5541 50.7267 19.8673 49.044 19.7184 46.7149L17.7225 46.8425C17.8945 49.5331 18.7028 51.5708 19.847 53.198C20.9791 54.8079 22.4114 55.9731 23.7524 56.956C25.1417 57.9743 26.3356 58.7375 27.2676 59.6531C28.1498 60.5197 28.6829 61.4236 28.7531 62.6324L30.7497 62.5165ZM19.7182 46.7109C19.447 42.7227 20.6123 38.748 23.2555 35.6822C25.8899 32.6266 30.0568 30.3997 35.9316 30.0169L35.8016 28.0212C29.4628 28.4341 24.7696 30.863 21.7407 34.3763C18.7206 37.8793 17.4195 42.3866 17.7228 46.8465L19.7182 46.7109ZM35.9275 30.0172C38.1903 29.879 39.8769 30.0914 40.9793 30.3289C41.531 30.4477 41.9376 30.5731 42.1981 30.6647C42.3284 30.7105 42.4221 30.7479 42.4793 30.7719C42.5078 30.7839 42.5272 30.7925 42.5374 30.7972C42.5426 30.7995 42.5454 30.8008 42.5459 30.801C42.5462 30.8012 42.5458 30.801 42.545 30.8006C42.5445 30.8004 42.5439 30.8001 42.5432 30.7997C42.5428 30.7996 42.5424 30.7994 42.542 30.7992C42.5418 30.799 42.5414 30.7989 42.5413 30.7988C42.5409 30.7986 42.5406 30.7985 42.9784 29.8994C43.4162 29.0003 43.4158 29.0002 43.4154 29C43.4153 28.9999 43.4149 28.9997 43.4146 28.9996C43.414 28.9993 43.4134 28.999 43.4127 28.9987C43.4114 28.998 43.4099 28.9973 43.4083 28.9965C43.4051 28.995 43.4013 28.9932 43.3969 28.9911C43.388 28.9869 43.3768 28.9817 43.3632 28.9756C43.336 28.9632 43.2992 28.947 43.253 28.9276C43.1605 28.8888 43.0301 28.8372 42.8618 28.778C42.5252 28.6596 42.0376 28.511 41.4004 28.3737C40.1252 28.099 38.2559 27.8713 35.8056 28.0209L35.9275 30.0172ZM42.0112 29.6453L39.2577 40.125L41.1921 40.6332L43.9456 30.1535L42.0112 29.6453ZM40.2249 40.3791C40.6472 39.4727 40.6469 39.4726 40.6467 39.4724C40.6466 39.4724 40.6463 39.4723 40.6461 39.4722C40.6457 39.472 40.6452 39.4718 40.6447 39.4715C40.6437 39.4711 40.6425 39.4705 40.6411 39.4699C40.6383 39.4686 40.6348 39.4669 40.6305 39.465C40.6219 39.4611 40.6102 39.4558 40.5956 39.4493C40.5665 39.4363 40.5255 39.4184 40.4734 39.3963C40.3691 39.3521 40.2199 39.2913 40.031 39.2202C39.6534 39.0781 39.1145 38.8941 38.4549 38.7202C37.1415 38.3738 35.3182 38.0587 33.3227 38.214L33.4778 40.2079C35.1818 40.0754 36.7708 40.3444 37.9449 40.654C38.529 40.8081 39.0026 40.9701 39.3266 41.092C39.4884 41.1529 39.6123 41.2036 39.6934 41.2379C39.7339 41.2551 39.7637 41.2682 39.7821 41.2764C39.7913 41.2805 39.7977 41.2834 39.8011 41.2849C39.8028 41.2857 39.8038 41.2862 39.8041 41.2863C39.8042 41.2863 39.8041 41.2863 39.8039 41.2862C39.8038 41.2861 39.8036 41.286 39.8034 41.2859C39.8033 41.2859 39.8031 41.2858 39.803 41.2858C39.8028 41.2857 39.8026 41.2856 40.2249 40.3791ZM33.3346 38.2131C30.41 38.4054 28.7176 39.4523 27.8171 40.781C26.9495 42.0611 26.9561 43.4043 26.9975 43.9432L28.9916 43.7902C28.9654 43.4488 28.972 42.6418 29.4727 41.903C29.9406 41.2128 30.9848 40.372 33.4659 40.2088L33.3346 38.2131ZM56.3393 91.9673L78.2536 86.2216L77.7464 84.287L55.832 90.0327L56.3393 91.9673ZM78 85.2543C78.9897 85.1111 78.9897 85.1108 78.9896 85.1103C78.9895 85.1098 78.9894 85.109 78.9893 85.108C78.989 85.1059 78.9885 85.1029 78.9879 85.0988C78.9867 85.0906 78.985 85.0784 78.9826 85.0623C78.978 85.0299 78.971 84.9816 78.9617 84.9179C78.9433 84.7905 78.916 84.6015 78.8803 84.3549C78.8089 83.8617 78.7042 83.1384 78.5709 82.2175C78.3044 80.3759 77.9235 77.7445 77.4662 74.5854C76.5516 68.2673 75.3313 59.8384 74.1083 51.3956C71.6663 34.5372 69.2042 17.5547 69.157 17.304L67.1915 17.6742C67.1895 17.6633 67.1973 17.7126 67.2207 17.8699C67.2414 18.0094 67.2711 18.2103 67.309 18.4688C67.3849 18.9859 67.4938 19.7315 67.631 20.6731C67.9054 22.5563 68.2928 25.2223 68.7553 28.4092C69.6804 34.7829 70.906 43.2395 72.1289 51.6823C73.3519 60.125 74.5723 68.5538 75.4869 74.8719C75.9442 78.031 76.325 80.6624 76.5916 82.504C76.7248 83.4248 76.8295 84.1482 76.9009 84.6414C76.9366 84.8879 76.9639 85.077 76.9824 85.2044C76.9916 85.2681 76.9986 85.3163 77.0033 85.3487C77.0056 85.3649 77.0074 85.3771 77.0085 85.3852C77.0091 85.3893 77.0096 85.3924 77.0099 85.3944C77.01 85.3954 77.0101 85.3962 77.0102 85.3967C77.0103 85.3972 77.0103 85.3975 78 85.2543ZM69.1631 17.3401C69.0263 16.4321 68.2593 15.7516 67.3848 15.7516V17.7516C67.2896 17.7516 67.2396 17.716 67.2226 17.7009C67.1993 17.6802 67.188 17.6555 67.1854 17.6381L69.1631 17.3401ZM67.3848 15.7516C67.2267 15.7516 65.8067 15.7138 64.3933 15.6748C63.6939 15.6555 63.0054 15.6362 62.4918 15.6218C62.235 15.6145 62.0219 15.6085 61.8731 15.6043C61.7986 15.6022 61.7403 15.6005 61.7005 15.5994C61.6806 15.5988 61.6654 15.5984 61.6551 15.5981C61.65 15.5979 61.6461 15.5978 61.6435 15.5978C61.6422 15.5977 61.6412 15.5977 61.6406 15.5977C61.6402 15.5977 61.64 15.5977 61.6398 15.5976C61.6397 15.5976 61.6397 15.5976 61.6396 15.5976C61.6396 15.5976 61.6396 15.5976 61.6111 16.5972C61.5827 17.5968 61.5827 17.5968 61.5827 17.5968C61.5828 17.5968 61.5828 17.5968 61.5829 17.5968C61.5831 17.5968 61.5833 17.5969 61.5837 17.5969C61.5843 17.5969 61.5853 17.5969 61.5866 17.5969C61.5892 17.597 61.5931 17.5971 61.5982 17.5973C61.6085 17.5976 61.6238 17.598 61.6437 17.5986C61.6835 17.5997 61.7419 17.6014 61.8164 17.6035C61.9654 17.6077 62.1786 17.6137 62.4355 17.621C62.9493 17.6354 63.6382 17.6547 64.3381 17.674C65.7233 17.7122 67.1902 17.7516 67.3848 17.7516V15.7516ZM61.6111 16.5972C62.2966 15.8691 62.2966 15.8691 62.2965 15.8691C62.2965 15.8691 62.2965 15.869 62.2964 15.869C62.2963 15.8689 62.2961 15.8687 62.2959 15.8685C62.2954 15.868 62.2947 15.8673 62.2937 15.8664C62.2918 15.8646 62.2889 15.8619 62.285 15.8582C62.2773 15.851 62.2658 15.8401 62.2508 15.826C62.2206 15.7976 62.1762 15.7557 62.1192 15.7019C62.005 15.5942 61.8403 15.4387 61.6381 15.2474C61.2336 14.8648 60.6793 14.3394 60.0801 13.7681C58.8766 12.6207 57.5081 11.3036 56.8001 10.5806L55.3712 11.98C56.1076 12.732 57.5019 14.0734 58.7 15.2157C59.3016 15.7893 59.8579 16.3165 60.2637 16.7004C60.4667 16.8923 60.632 17.0485 60.7467 17.1567C60.8041 17.2108 60.8488 17.2529 60.8791 17.2815C60.8943 17.2958 60.9059 17.3068 60.9137 17.3141C60.9177 17.3178 60.9206 17.3206 60.9226 17.3225C60.9236 17.3234 60.9244 17.3241 60.9249 17.3246C60.9251 17.3249 60.9253 17.325 60.9255 17.3252C60.9255 17.3252 60.9256 17.3253 60.9256 17.3253C60.9256 17.3253 60.9257 17.3254 61.6111 16.5972ZM55.0856 11.2803V91H57.0856V11.2803H55.0856ZM20.8765 22.3895C21.729 18.1075 23.6546 12.0093 26.6199 7.5775C28.1019 5.36258 29.7912 3.64343 31.6587 2.73135C33.4817 1.84097 35.5429 1.68339 37.9236 2.70829L38.7144 0.871286C35.8043 -0.381518 33.1337 -0.214839 30.781 0.934235C28.4727 2.06161 26.5423 4.09711 24.9577 6.46528C21.7898 11.1997 19.7945 17.5814 18.915 21.999L20.8765 22.3895ZM37.8702 2.6834C39.8174 3.66144 40.7828 5.651 41.233 8.08144C41.6838 10.5157 41.5706 13.1154 41.5706 15.0765H43.5706C43.5706 13.2414 43.6935 10.3841 43.1995 7.71721C42.7049 5.04652 41.5446 2.29083 38.7679 0.896173L37.8702 2.6834ZM30.7907 20.0448C31.5393 16.774 32.968 12.2662 35.284 9.0272C36.4369 7.41473 37.764 6.18151 39.272 5.53437C40.7503 4.89994 42.4898 4.79001 44.5818 5.57351L45.2833 3.70057C42.7458 2.7502 40.4705 2.84363 38.4832 3.69647C36.5256 4.53661 34.9364 6.07458 33.657 7.86395C31.1083 11.4286 29.6082 16.247 28.8412 19.5986L30.7907 20.0448ZM44.5705 5.56919C45.6737 5.99773 46.5957 7.22032 47.3244 8.80909C48.0315 10.3506 48.45 11.9968 48.686 12.9454L50.6268 12.4624C50.3905 11.5129 49.9351 9.70365 49.1423 7.97526C48.3712 6.29411 47.1674 4.43231 45.2946 3.70489L44.5705 5.56919Z" fill="#DBFF00"/>
</svg>
