<svg width="80" height="92" viewBox="0 0 80 92" fill="none" xmlns="http://www.w3.org/2000/svg">
<path d="M41.9656 1.075C46.8661 1 51.7292 1.0375 56.5923 1C56.8916 6.73743 58.9491 12.5874 63.1388 16.6373C67.3286 20.7998 73.2391 22.7122 79 23.3497V38.462C73.6132 38.2745 68.189 37.1495 63.2885 34.8246C61.1562 33.8496 59.1735 32.6121 57.2283 31.3371C57.1909 42.287 57.2657 53.2368 57.1535 64.1492C56.8542 69.3991 55.1334 74.6116 52.1033 78.924C47.2028 86.1239 38.7111 90.8114 29.9949 90.9614C24.6455 91.2614 19.2961 89.7989 14.7323 87.0989C7.17577 82.6365 1.86377 74.4616 1.07819 65.6867C1.00337 63.8117 0.965965 61.9367 1.04078 60.0993C1.71413 52.9744 5.23053 46.1494 10.6922 41.4995C16.902 36.0996 25.5807 33.5121 33.6984 35.0496C33.7732 40.5995 33.5487 46.1494 33.5487 51.6994C29.8453 50.4994 25.5059 50.8369 22.2514 53.0868C19.8946 54.6243 18.099 56.9868 17.1638 59.6493C16.3783 61.5617 16.6027 63.6617 16.6401 65.6867C17.5379 71.8366 23.4484 77.0116 29.7331 76.4491C33.9228 76.4116 37.9255 73.9741 40.0952 70.4116C40.806 69.1741 41.5915 67.8992 41.629 66.4367C42.003 59.7243 41.8534 53.0493 41.8908 46.3369C41.9282 31.2246 41.8534 16.1498 41.9656 1.075Z" stroke="#DBFF00" stroke-width="2" stroke-linejoin="round"/>
</svg>
